<svg id="Capa_1" enable-background="new 0 0 512 512" height="512" viewBox="0 0 512 512" width="512" xmlns="http://www.w3.org/2000/svg"><g><g><path d="m504.5 78.899v308.64h-348.847l-57.168-5.539-56.83 5.539h-34.155v-308.64l251.379-13.373z" fill="#ddeafb"/><path d="m480.75 69.7v317.839h23.75v-308.64z" fill="#cbe2ff"/><path d="m457 40.069 8.592 19.415-8.592 19.415h-449.5v-38.83z" fill="#0473ce"/><path d="m457 40.069h47.5v38.83h-47.5z" fill="#fe646f"/><path d="m504.5 40.069h-37.952c7.844 0 14.202 6.359 14.202 14.203v24.627h23.75z" fill="#fd4755"/><path d="m155.65 112.07v120.369l-57.165 7.227-56.835-7.227v-120.369z" fill="#528fd8"/><path d="m155.65 232.439v52.82c0 .006-.005.01-.01.01h-113.98c-.006 0-.01-.005-.01-.01v-52.82z" fill="#fff9df"/><g><path d="m41.486 315.053h113.998v72.486h-113.998z" fill="#a274bf"/></g><path d="m313.53 112.07v55.23l-56.995 8.568-56.995-8.568v-55.23z" fill="#a274bf"/><g><path d="m313.53 251.59v55.24l-54.651 5.782-59.339-5.782v-55.24z" fill="#82aee3"/></g><path d="m471.427 112.067.003 55.233-57.064 8.568-56.936-8.568v-55.233z" fill="#fe646f"/><g fill="#fff9df"><path d="m313.53 167.3v52.82c0 .005-.004.01-.01.01h-113.98v-52.83z"/><path d="m471.43 167.3v52.82c0 .005-.004.01-.01.01h-113.99v-52.83z"/><path d="m199.54 306.83h113.99v52.82h-113.99z"/></g><path d="m504.5 296.32v153.04c0 12.47-10.1 22.57-22.57 22.57h-207.98c-12.47 0-22.57-10.1-22.57-22.57v-119.95c0-12.46 10.1-22.57 22.57-22.57h97.64c9.48 0 17.94-5.91 21.2-14.81l1.26-3.46c3.26-8.9 11.72-14.82 21.2-14.82h66.68c12.47 0 22.57 10.099 22.57 22.57z" fill="#ffd15b"/><path d="m283.534 409.527h96.867v31.341h-96.867z" fill="#fff9df"/><path d="m380.401 409.527h-29.525c2.689 0 4.869 2.18 4.869 4.869v21.603c0 2.689-2.18 4.869-4.869 4.869h29.525z" fill="#fff0ad"/><g><path d="m481.93 273.75h-26.556c8.282 0 14.996 6.714 14.996 14.996v168.188c0 8.282-6.714 14.996-14.996 14.996h26.556c12.47 0 22.57-10.1 22.57-22.57v-153.04c0-12.471-10.1-22.57-22.57-22.57z" fill="#ffc344"/></g></g><g><path d="m504.5 32.57h-497c-4.142 0-7.5 3.358-7.5 7.5v347.47c0 4.142 3.358 7.5 7.5 7.5h208.103c4.142 0 7.5-3.358 7.5-7.5s-3.358-7.5-7.5-7.5h-52.619v-64.986c0-4.142-3.358-7.5-7.5-7.5h-113.998c-4.142 0-7.5 3.358-7.5 7.5v64.986h-18.986v-293.637h482v183.91c-4.434-2.58-9.58-4.066-15.07-4.066h-66.68c-12.572 0-23.921 7.933-28.24 19.741-1.914 7.208-7.459 13.354-15.419 13.354l-164.55-.014v-40.24h98.99v12.659c0 4.142 3.358 7.5 7.5 7.5s7.5-3.358 7.5-7.5v-20.159c0-4.142-3.358-7.5-7.5-7.5h-113.991c-4.142 0-7.5 3.358-7.5 7.5v108.06c0 4.142 3.358 7.5 7.5 7.5h44.339v82.21c0 16.581 13.489 30.07 30.07 30.07h207.981c16.581 0 30.07-13.489 30.07-30.07v-409.288c0-4.142-3.358-7.5-7.5-7.5zm-455.514 289.983h98.998v57.486h-98.998zm448.014-251.154h-32.5v-23.829h32.5zm-47.5-23.829v23.83h-434.5v-23.83zm-242.46 304.579v-37.82h40.912c-1.999 3.432-3.336 7.292-3.841 11.408h-12.576c-4.142 0-7.5 3.358-7.5 7.5s3.358 7.5 7.5 7.5h12.343v11.412zm289.96 97.211c0 8.31-6.76 15.07-15.07 15.07h-207.981c-8.31 0-15.07-6.761-15.07-15.07v-119.947c0-8.31 6.76-15.07 15.07-15.07h97.642c14.206 0 25.415-10.087 29.506-23.202 2.165-5.917 7.852-9.893 14.153-9.893h66.681c8.31 0 15.07 6.761 15.07 15.07v91.221 61.821z"/><path d="m66.277 119.566c4.142 0 7.5-3.358 7.5-7.5s-3.358-7.5-7.5-7.5h-24.623c-4.142 0-7.5 3.358-7.5 7.5v173.202c0 4.142 3.358 7.5 7.5 7.5h113.998c4.142 0 7.5-3.358 7.5-7.5v-173.202c0-4.142-3.358-7.5-7.5-7.5h-54.695c-4.142 0-7.5 3.358-7.5 7.5s3.358 7.5 7.5 7.5h47.195v105.377h-98.998v-105.377zm81.875 120.377v37.825h-98.998v-37.825z"/><path d="m73.654 266.846h50.998c4.142 0 7.5-3.358 7.5-7.5s-3.358-7.5-7.5-7.5h-50.998c-4.142 0-7.5 3.358-7.5 7.5s3.358 7.5 7.5 7.5z"/><path d="m199.536 227.625h113.998c4.142 0 7.5-3.358 7.5-7.5v-108.059c0-4.142-3.358-7.5-7.5-7.5h-113.998c-4.142 0-7.5 3.358-7.5 7.5v108.059c0 4.143 3.358 7.5 7.5 7.5zm106.498-15h-98.998v-37.825h98.998zm0-93.059v40.234h-98.998v-40.234z"/><path d="m231.536 201.213h50.998c4.142 0 7.5-3.358 7.5-7.5s-3.358-7.5-7.5-7.5h-50.998c-4.142 0-7.5 3.358-7.5 7.5s3.358 7.5 7.5 7.5z"/><path d="m471.427 227.625c4.142 0 7.5-3.358 7.5-7.5v-108.059c0-4.142-3.358-7.5-7.5-7.5h-113.997c-4.142 0-7.5 3.358-7.5 7.5v108.059c0 4.142 3.358 7.5 7.5 7.5zm-7.5-15h-98.997v-37.825h98.998v37.825zm0-93.059v40.234h-98.997v-40.234z"/><path d="m389.43 201.213h50.998c4.142 0 7.5-3.358 7.5-7.5s-3.358-7.5-7.5-7.5h-50.998c-4.142 0-7.5 3.358-7.5 7.5s3.358 7.5 7.5 7.5z"/><path d="m470.365 296.865h-48.499c-4.142 0-7.5 3.358-7.5 7.5s3.358 7.5 7.5 7.5h48.499c4.142 0 7.5-3.358 7.5-7.5s-3.358-7.5-7.5-7.5z"/><path d="m380.401 402.027h-96.867c-4.142 0-7.5 3.358-7.5 7.5v31.341c0 4.142 3.358 7.5 7.5 7.5h96.867c4.142 0 7.5-3.358 7.5-7.5v-31.341c0-4.142-3.358-7.5-7.5-7.5zm-7.5 31.341h-81.867v-16.341h81.867z"/></g></g></svg>